<?xml version="1.0" encoding="UTF-8" standalone="no"?>
<!-- Created with Inkscape (http://www.inkscape.org/) -->

<svg
   xmlns:dc="http://purl.org/dc/elements/1.1/"
   xmlns:cc="http://creativecommons.org/ns#"
   xmlns:rdf="http://www.w3.org/1999/02/22-rdf-syntax-ns#"
   xmlns:svg="http://www.w3.org/2000/svg"
   xmlns="http://www.w3.org/2000/svg"
   xmlns:sodipodi="http://sodipodi.sourceforge.net/DTD/sodipodi-0.dtd"
   xmlns:inkscape="http://www.inkscape.org/namespaces/inkscape"
   width="100mm"
   height="297mm"
   viewBox="0 0 100 297"
   version="1.1"
   id="svg70"
   inkscape:version="0.92.4 (5da689c313, 2019-01-14)"
   sodipodi:docname="cpu.svg">
  <defs
     id="defs64" />
  <sodipodi:namedview
     id="base"
     pagecolor="#ffffff"
     bordercolor="#666666"
     borderopacity="1.0"
     inkscape:pageopacity="0.0"
     inkscape:pageshadow="2"
     inkscape:zoom="0.98994949"
     inkscape:cx="254.49979"
     inkscape:cy="461.93004"
     inkscape:document-units="mm"
     inkscape:current-layer="layer1"
     showgrid="false"
     inkscape:window-width="3760"
     inkscape:window-height="2096"
     inkscape:window-x="80"
     inkscape:window-y="64"
     inkscape:window-maximized="1" />
  <metadata
     id="metadata67">
    <rdf:RDF>
      <cc:Work
         rdf:about="">
        <dc:format>image/svg+xml</dc:format>
        <dc:type
           rdf:resource="http://purl.org/dc/dcmitype/StillImage" />
        <dc:title></dc:title>
      </cc:Work>
    </rdf:RDF>
  </metadata>
  <g
     inkscape:label="Layer 1"
     inkscape:groupmode="layer"
     id="layer1">
    <path
       style="stroke-width:0.11725412"
       inkscape:connector-curvature="0"
       d="m 23.086663,10.604618 -7.54307,7.349013 v 28.592238 28.707053 l 7.54307,7.119326 7.543071,7.119347 h 19.755658 19.755659 l 7.423337,-7.234144 7.54307,-7.234192 L 84.748266,66.411141 84.389073,57.913847 72.176482,57.569376 59.84416,57.224869 v 5.052448 c 0,2.641048 -0.598656,5.511777 -1.436774,6.315554 -1.915698,1.837248 -14.367751,1.837248 -16.283448,0 -2.274897,-2.18173 -2.035434,-41.567803 0.239477,-43.290227 1.07758,-0.8038 4.789249,-1.263118 9.339039,-1.03346 l 7.543066,0.344483 0.359197,5.971071 0.359192,6.085895 H 72.535695 84.987742 V 27.254726 17.953631 L 77.444676,10.604618 69.781873,3.3704537 H 50.265676 30.749483 Z"
       id="path8" />
    <path
       style="stroke-width:0.11549615"
       inkscape:connector-curvature="0"
       d="m 18.86184,116.68174 c 0,9.14516 0.227528,9.96587 2.275453,9.96587 2.161683,0 2.275457,0.82074 2.275457,23.44915 0,22.6284 -0.113782,23.4491 -2.275457,23.4491 -2.161682,0 -2.275453,0.82073 -2.275453,10.55211 v 10.55211 h 16.497047 16.49705 v -10.55211 c 0,-9.84862 -0.113781,-10.55211 -2.389226,-10.55211 -2.04791,0 -2.275457,-0.58622 -1.93414,-6.21402 l 0.341321,-6.09675 11.94614,-0.35176 11.946138,-0.35172 6.598819,-6.683 6.485046,-6.56576 v -13.48324 -13.48327 l -6.485046,-6.80025 -6.485046,-6.80024 H 45.370892 18.86184 Z m 41.527054,17.00061 v 6.44853 l -6.485046,0.35172 -6.598821,0.35173 v -7.15198 -7.15199 l 6.598821,0.35176 6.485046,0.35173 z"
       id="path34" />
    <path
       style="stroke-width:0.11335451"
       inkscape:connector-curvature="0"
       d="m 15.910892,216.82855 c 0,9.12156 0.219766,9.9402 2.197515,9.9402 2.087639,0 2.197515,0.81858 2.197515,26.66309 v 26.6631 l 6.922165,7.25052 6.922163,7.25049 h 17.580121 17.580108 l 6.812298,-7.36743 6.812273,-7.36745 v -26.54618 c 0,-25.72756 0.109883,-26.54614 2.197528,-26.54614 1.977764,0 2.197515,-0.81864 2.197515,-9.9402 v -9.9402 H 71.398112 55.466143 v 9.9402 c 0,9.23852 0.219752,9.9402 2.197515,9.9402 2.197515,0 2.197515,0.58471 1.977762,23.03784 l -0.329635,23.1548 h -7.691297 -7.691284 l -0.329635,-23.1548 c -0.219765,-22.45313 -0.219765,-23.03784 1.977762,-23.03784 1.97775,0 2.197503,-0.70168 2.197503,-9.9402 v -9.9402 H 31.842865 15.910892 Z"
       id="path44" />
  </g>
</svg>
